<svg width="48" height="48" viewBox="0 0 48 48" fill="none" xmlns="http://www.w3.org/2000/svg">
  <path d="M24 44C35.0457 44 44 35.0457 44 24C44 12.9543 35.0457 4 24 4C12.9543 4 4 12.9543 4 24C4 26.5 8 28 10 28C12 28 14 26 14 24C14 22 12 20 14 20C16 20 18 22 20 24C22 26 22 28 24 28C28.4183 28 32 24.4183 32 20C32 15.5817 28.4183 12 24 12" stroke="currentColor" stroke-width="2" stroke-linecap="round" stroke-linejoin="round"/>
  <circle cx="16" cy="16" r="2" fill="currentColor"/>
  <circle cx="28" cy="14" r="2" fill="currentColor"/>
  <circle cx="34" cy="22" r="2" fill="currentColor"/>
</svg>
