<svg width="48" height="48" viewBox="0 0 48 48" fill="none" xmlns="http://www.w3.org/2000/svg">
  <!-- Masque souriant -->
  <path d="M14 10C14 8.89543 14.8954 8 16 8H22C23.1046 8 24 8.89543 24 10V14C24 20.6274 18.6274 26 12 26H10C8.89543 26 8 25.1046 8 24V16C8 12.6863 10.6863 10 14 10Z" stroke="currentColor" stroke-width="2"/>
  <circle cx="14" cy="16" r="1.5" fill="currentColor"/>
  <circle cx="20" cy="16" r="1.5" fill="currentColor"/>
  <path d="M12 20C12 20 14 22 17 22C20 22 22 20 22 20" stroke="currentColor" stroke-width="1.5" stroke-linecap="round"/>
  
  <!-- Masque triste -->
  <path d="M34 10C34 8.89543 34.8954 8 36 8H42C43.1046 8 44 8.89543 44 10V14C44 20.6274 38.6274 26 32 26H30C28.8954 26 28 25.1046 28 24V16C28 12.6863 30.6863 10 34 10Z" stroke="currentColor" stroke-width="2"/>
  <circle cx="34" cy="16" r="1.5" fill="currentColor"/>
  <circle cx="40" cy="16" r="1.5" fill="currentColor"/>
  <path d="M32 22C32 22 34 20 37 20C40 20 42 22 42 22" stroke="currentColor" stroke-width="1.5" stroke-linecap="round"/>
</svg>
